<?xml version="1.0" standalone="no"?>
<!DOCTYPE svg PUBLIC "-//W3C//DTD SVG 20010904//EN"
 "http://www.w3.org/TR/2001/REC-SVG-20010904/DTD/svg10.dtd">
<svg version="1.0" xmlns="http://www.w3.org/2000/svg"
 width="500.000000pt" height="500.000000pt" viewBox="0 0 500.000000 500.000000"
 preserveAspectRatio="xMidYMid meet">
<metadata>
Created by potrace 1.14, written by Peter Selinger 2001-2017
</metadata>
<g transform="translate(0.000000,500.000000) scale(0.100000,-0.100000)"
fill="#000000" stroke="none">
<path d="M902 4240 c-44 -18 -89 -60 -116 -109 l-26 -50 2 -593 3 -593 32 -47
c23 -32 49 -55 86 -72 l53 -26 586 2 586 3 43 30 c24 17 57 50 74 74 l30 43 3
574 c2 390 -1 587 -8 615 -14 50 -73 116 -125 140 -37 17 -80 19 -620 18 -330
0 -590 -4 -603 -9z m1218 -62 c27 -15 54 -42 68 -66 l22 -40 0 -571 c0 -621 2
-598 -57 -652 -60 -56 -38 -54 -612 -57 -357 -2 -551 1 -586 8 -66 14 -128 67
-144 125 -15 55 -15 1094 0 1150 14 50 74 109 126 123 24 7 235 10 588 9 l550
-2 45 -27z"/>
<path d="M1385 3928 c-16 -5 -52 -7 -78 -6 -37 1 -52 -3 -68 -19 -18 -18 -19
-23 -8 -41 10 -16 11 -28 3 -50 -12 -33 -19 -233 -18 -530 0 -159 3 -205 14
-212 15 -9 156 -7 166 3 3 3 8 30 10 59 2 29 6 78 9 108 2 30 4 63 5 73 0 15
11 17 83 17 103 0 203 16 242 39 40 23 77 80 109 169 l26 73 -21 92 c-23 103
-36 122 -116 168 -79 46 -284 78 -358 57z m-37 -73 c-37 -25 -69 -45 -71 -45
-1 0 -1 17 2 38 4 31 5 33 10 13 l6 -23 30 30 c19 18 41 30 60 31 27 1 23 -3
-37 -44z m235 37 c14 -6 9 -12 -29 -30 l-46 -23 6 26 c7 28 -10 33 -45 15 -18
-10 -27 -1 -12 13 8 9 103 8 126 -1z m108 -32 c26 -14 24 -27 -5 -32 -18 -4
-26 0 -29 14 -5 19 -7 19 -49 -2 l-43 -21 30 26 c32 26 64 32 96 15z m-291
-10 c0 -5 -18 -19 -40 -30 -42 -22 -54 -42 -19 -33 19 5 20 4 8 -14 -7 -13
-19 -18 -31 -15 -11 3 -18 -1 -18 -11 0 -8 -7 -18 -16 -21 -21 -8 -24 -8 -24
4 0 6 5 10 11 10 12 0 38 29 39 42 0 3 -10 4 -22 1 l-23 -5 22 16 c16 12 96
59 111 65 1 1 2 -3 2 -9z m60 -21 c-13 -23 -33 -33 -52 -26 -8 2 1 13 22 25
43 27 43 27 30 1z m50 -24 c-14 -8 -29 -14 -35 -14 -5 0 1 6 15 14 14 8 30 14
35 14 6 0 -1 -6 -15 -14z m94 0 c-10 -8 -23 -14 -29 -14 -5 0 -1 6 9 14 11 8
24 15 30 15 5 0 1 -7 -10 -15z m196 -17 c26 -42 22 -71 -8 -73 -13 -1 -27 -8
-32 -15 -4 -7 -14 -10 -21 -8 -9 3 0 14 23 29 21 13 38 27 38 32 0 13 -29 7
-38 -8 -4 -9 -24 -18 -43 -20 l-34 -4 25 17 c13 9 36 27 50 39 l25 22 -32 1
c-17 0 -35 -4 -38 -10 -3 -5 -16 -15 -28 -21 -25 -13 -15 -3 27 29 40 30 63
28 86 -10z m-140 -5 c-14 -9 -28 -22 -32 -27 -5 -7 -8 -5 -8 5 0 9 10 21 23
27 34 17 44 14 17 -5z m-99 -34 c27 -12 50 -27 50 -33 1 -6 2 -15 3 -21 0 -5
9 -22 18 -36 23 -33 28 -127 8 -139 -21 -13 -143 -40 -180 -40 l-32 0 2 88 c2
48 -1 109 -5 135 -6 38 -5 51 6 58 24 15 78 10 130 -12z m-176 -8 c-6 -4 -23
-11 -40 -15 l-30 -6 25 15 c27 16 60 21 45 6z m-90 -59 c-27 -13 -33 -32 -12
-32 7 0 21 6 32 13 67 46 75 50 75 34 0 -8 -10 -17 -22 -21 -19 -5 -21 -8 -8
-16 11 -7 12 -10 2 -10 -7 0 -34 -14 -58 -31 l-45 -31 3 54 c2 44 6 53 21 50
11 -2 17 4 17 15 0 15 2 16 10 3 7 -11 3 -18 -15 -28z m484 4 c-9 -9 -80 -56
-84 -56 -28 0 46 51 84 59 2 1 2 -1 0 -3z m55 -31 c10 -54 1 -72 -42 -78 -20
-3 -46 -8 -57 -12 -11 -4 3 7 32 24 28 17 54 35 57 40 10 16 -19 19 -59 5 -22
-7 -41 -12 -43 -10 -3 4 89 64 99 65 4 1 10 -15 13 -34z m-435 -67 c-1 -35 -3
-55 -6 -45 -3 13 -10 16 -26 11 -12 -4 -29 -9 -37 -11 -8 -3 1 5 20 18 19 12
37 24 39 26 3 2 0 8 -5 13 -12 12 -58 -7 -63 -25 -2 -10 -39 -34 -53 -35 -3 0
-4 8 -1 18 4 16 106 90 126 91 4 1 6 -27 6 -61z m326 2 c-3 -5 -12 -10 -18
-10 -7 0 -6 4 3 10 19 12 23 12 15 0z m100 -43 c-7 -16 -36 -27 -70 -26 -13 0
-4 8 25 22 51 26 53 26 45 4z m-495 -35 c-14 -9 -35 -27 -47 -39 l-23 -22 0
28 c0 23 6 29 38 38 54 15 60 14 32 -5z m60 4 c0 -6 -66 -46 -76 -46 -5 0 9
11 31 25 43 26 45 27 45 21z m410 -26 c0 -14 -55 -40 -82 -39 -17 0 -10 6 27
24 28 13 51 24 53 24 1 1 2 -3 2 -9z m-170 -14 c0 -1 -21 -17 -47 -34 -27 -17
-59 -39 -73 -49 -23 -17 -23 -16 5 24 20 29 41 45 65 51 42 12 50 13 50 8z
m-258 -22 c11 -10 -69 -75 -85 -68 -8 3 -18 1 -22 -5 -3 -6 -1 -11 5 -11 6 0
8 -4 5 -10 -12 -20 -25 -9 -25 21 0 26 5 33 40 46 22 9 40 20 40 25 0 9 34 11
42 2z m108 -4 c0 -5 -8 -10 -19 -10 -10 0 -40 -17 -67 -39 -27 -21 -65 -46
-84 -56 -35 -17 -35 -17 10 25 58 54 83 71 123 80 17 5 33 8 35 9 1 1 2 -3 2
-9z m165 0 c-3 -6 -19 -17 -36 -25 -29 -16 -40 -45 -16 -45 7 0 29 9 50 20 20
11 44 20 54 20 14 0 13 -4 -6 -24 -16 -17 -37 -25 -79 -30 -31 -3 -67 -9 -79
-12 -46 -13 -22 21 45 63 73 46 76 48 67 33z m-181 -67 c-4 -15 -16 -22 -40
-25 -19 -2 -31 -1 -26 2 28 24 66 50 68 47 2 -1 1 -12 -2 -24z m281 17 c-3 -5
-12 -10 -18 -10 -7 0 -6 4 3 10 19 12 23 12 15 0z m-455 -120 c-14 -11 -29
-20 -35 -20 -5 0 4 9 20 20 38 25 48 25 15 0z m90 -28 c0 -5 -16 -16 -35 -25
-44 -21 -45 -15 -2 12 37 24 37 24 37 13z m-70 -12 c-33 -23 -50 -30 -50 -22
0 5 10 14 23 20 28 14 47 15 27 2z m-5 -65 c-34 -28 -45 -31 -45 -11 0 8 12
19 28 24 44 17 49 13 17 -13z m65 0 c0 -8 -6 -15 -14 -15 -8 0 -23 -3 -33 -7
-12 -4 -10 0 7 15 30 25 40 27 40 7z m-2 -57 c-5 -14 -75 -29 -97 -20 -9 3 0
10 25 18 53 16 77 17 72 2z"/>
<path d="M2780 4231 c-46 -25 -87 -67 -111 -113 -18 -35 -19 -67 -19 -615 0
-539 2 -581 19 -618 23 -51 65 -93 116 -116 37 -17 78 -19 615 -19 642 0 617
-2 687 71 65 68 63 50 63 679 0 629 2 611 -63 679 -70 73 -44 71 -692 70 -546
0 -582 -1 -615 -18z m1231 -53 c26 -15 57 -45 70 -65 l24 -38 0 -565 c0 -535
-1 -568 -19 -608 -25 -55 -90 -99 -159 -107 -29 -3 -286 -5 -573 -3 l-521 3
-48 30 c-95 59 -90 19 -90 676 l0 575 27 42 c27 40 64 66 118 83 14 4 273 7
575 6 l550 -2 46 -27z"/>
<path d="M3380 3972 c-50 -5 -60 -18 -60 -73 0 -53 -3 -50 80 -63 53 -8 62 2
58 69 -3 65 -14 73 -78 67z m39 -58 c3 -2 0 -9 -6 -15 -16 -16 -47 -7 -51 15
-3 16 0 18 24 12 16 -4 31 -10 33 -12z"/>
<path d="M3336 3694 c-9 -8 -19 -27 -23 -42 -12 -43 -8 -380 5 -455 19 -101
27 -114 81 -126 25 -5 49 -7 54 -4 5 3 8 62 6 132 -1 69 1 187 6 262 9 150 3
201 -26 230 -23 23 -81 25 -103 3z m84 -50 c0 -8 -10 -14 -24 -14 -13 0 -29 6
-35 14 -10 12 -6 14 24 14 23 0 35 -5 35 -14z m-50 -49 c-7 -9 -15 -13 -17
-11 -7 7 7 26 19 26 6 0 6 -6 -2 -15z m50 -10 c0 -20 -5 -25 -27 -25 l-26 0
23 25 c13 14 25 25 27 25 2 0 3 -11 3 -25z m-40 -65 c-14 -10 -27 -17 -29 -15
-8 8 22 35 38 35 12 0 10 -5 -9 -20z m40 -15 c0 -8 -7 -15 -15 -15 -16 0 -20
12 -8 23 11 12 23 8 23 -8z m5 -68 c-4 -8 -16 -17 -27 -20 -19 -5 -19 -5 3 19
24 26 33 26 24 1z m-49 -62 c-11 -8 -22 -12 -25 -9 -6 6 19 24 34 24 6 -1 1
-7 -9 -15z m44 -20 c0 -22 -4 -25 -32 -25 l-33 1 30 24 c17 14 31 25 33 25 1
0 2 -11 2 -25z m-20 -40 c0 -2 -9 -9 -20 -15 -12 -6 -20 -7 -20 -1 0 5 8 12
18 14 9 3 18 5 20 6 1 0 2 -1 2 -4z m-2 -56 c-30 -20 -41 -9 -17 17 20 22 25
23 27 9 2 -10 -2 -21 -10 -26z m-13 -39 c-3 -5 -11 -10 -16 -10 -6 0 -7 5 -4
10 3 6 11 10 16 10 6 0 7 -4 4 -10z m35 -27 c0 -10 -4 -25 -10 -33 -5 -9 -5
-19 2 -27 8 -10 6 -13 -9 -13 -29 0 -35 11 -16 32 15 17 15 18 -2 18 -17 0
-17 1 0 20 22 25 35 26 35 3z"/>
<path d="M879 2473 c-43 -22 -61 -39 -87 -83 l-32 -55 2 -595 3 -595 32 -47
c23 -32 49 -55 86 -72 l53 -26 586 2 586 3 43 30 c24 17 57 50 74 74 l30 43 3
574 c2 390 -1 587 -8 615 -14 50 -73 116 -125 140 -37 17 -80 19 -616 19
l-575 0 -55 -27z m1241 -45 c27 -15 54 -42 68 -66 l22 -40 0 -572 c0 -569 0
-572 -22 -611 -12 -21 -39 -51 -61 -66 l-40 -28 -576 0 c-525 0 -579 2 -607
17 -43 23 -81 71 -94 116 -14 53 -14 1094 1 1147 14 50 74 109 126 123 24 7
235 10 588 9 l550 -2 45 -27z"/>
<path d="M1409 2177 c-201 -68 -329 -276 -317 -510 4 -71 10 -96 38 -154 40
-82 124 -169 195 -202 56 -27 89 -28 240 -13 164 17 199 24 213 40 17 23 16
111 -3 118 -7 3 -44 -6 -82 -21 -60 -25 -75 -27 -143 -21 -123 11 -188 34
-237 82 -29 29 -44 54 -48 81 -4 21 -11 50 -17 65 -11 30 -4 131 14 208 26
107 78 164 183 198 105 35 153 37 238 12 92 -27 107 -24 107 28 0 45 -37 87
-91 102 -64 19 -218 12 -290 -13z m311 -41 c0 -8 -4 -18 -10 -21 -5 -3 -10 -4
-10 -1 0 2 -3 11 -6 20 -4 11 -1 16 10 16 9 0 16 -6 16 -14z m-276 -11 c-10
-8 -23 -14 -29 -14 -5 0 -1 6 9 14 11 8 24 15 30 15 5 0 1 -7 -10 -15z m-102
-47 c-7 -7 -12 -8 -12 -2 0 6 3 14 7 17 3 4 9 5 12 2 2 -3 -1 -11 -7 -17z
m-72 -80 c-42 -34 -56 -21 -19 18 28 29 35 32 38 18 2 -10 -7 -26 -19 -36z
m-40 -43 c0 -2 -10 -9 -22 -15 -22 -11 -22 -10 -4 4 21 17 26 19 26 11z m10
-29 c0 -2 -8 -10 -17 -17 -16 -13 -17 -12 -4 4 13 16 21 21 21 13z m-50 -66
c-19 -13 -30 -13 -30 0 0 6 10 10 23 10 18 0 19 -2 7 -10z m20 -25 c0 -9 -9
-15 -22 -15 -22 1 -23 1 -4 15 25 19 26 19 26 0z m-10 -54 c0 -11 -50 -44 -57
-38 -2 3 0 15 7 26 10 20 50 30 50 12z m4 -36 c-4 -8 -14 -15 -23 -15 -14 1
-13 3 3 15 25 19 27 19 20 0z m-33 -56 c-19 -15 -26 -17 -32 -7 -15 22 -10 28
24 28 l32 -1 -24 -20z m29 -19 c0 -12 -28 -25 -36 -17 -9 9 6 27 22 27 8 0 14
-5 14 -10z m-15 -60 c-10 -11 -22 -20 -27 -20 -4 0 -8 9 -8 20 0 15 7 20 27
20 25 0 26 0 8 -20z m24 -33 c-14 -9 -14 -12 3 -29 11 -11 17 -26 14 -34 -3
-8 1 -14 9 -14 8 0 15 -9 15 -20 0 -11 5 -20 11 -20 5 0 8 -4 4 -9 -3 -5 34
-21 82 -36 49 -14 102 -30 118 -35 67 -20 131 -22 199 -5 71 18 94 15 54 -6
-32 -18 -244 -24 -283 -9 -16 7 -43 13 -60 15 -40 3 -129 42 -151 66 -9 10
-17 32 -18 49 -1 16 -6 30 -12 30 -7 0 -15 12 -18 26 -8 32 21 72 38 53 8 -8
6 -14 -5 -22z"/>
<path d="M2782 2480 c-48 -22 -86 -59 -113 -112 -18 -35 -19 -67 -19 -615 0
-539 2 -581 19 -618 23 -51 65 -93 116 -116 37 -17 78 -19 615 -19 642 0 617
-2 687 71 65 68 63 50 63 679 0 629 2 611 -63 679 -70 73 -45 71 -687 71 -547
0 -577 -1 -618 -20z m1229 -52 c26 -15 57 -45 70 -65 l24 -38 0 -570 0 -570
-23 -42 c-12 -24 -41 -55 -64 -70 l-42 -28 -577 0 -577 0 -43 30 c-24 17 -52
46 -64 65 -20 34 -20 49 -20 611 l0 575 27 42 c27 40 64 66 118 83 14 4 273 7
575 6 l550 -2 46 -27z"/>
<path d="M3310 2196 c-36 -6 -82 -20 -103 -30 -47 -23 -101 -86 -123 -143 -15
-38 -15 -51 -5 -99 20 -90 43 -107 267 -204 219 -95 244 -114 244 -190 0 -71
-73 -114 -195 -114 -112 -1 -149 7 -212 41 -34 19 -63 30 -66 26 -3 -4 -8 -23
-12 -40 -3 -18 -14 -37 -23 -42 -15 -8 -15 -12 -2 -36 21 -40 53 -52 178 -65
127 -14 198 -9 275 20 28 11 59 20 68 20 38 0 69 41 95 127 30 99 29 154 -5
202 -40 56 -139 111 -199 111 -13 0 -57 18 -97 40 -40 22 -82 40 -94 40 -12 0
-42 19 -66 41 -56 52 -61 94 -17 139 65 65 181 66 317 1 l90 -42 17 22 c12 14
18 39 18 75 0 64 -14 76 -105 92 -105 19 -178 21 -245 8z m225 -47 c79 -13 89
-20 81 -53 -9 -38 -30 -33 -22 5 6 29 4 31 -19 25 -16 -4 -25 -2 -25 5 0 8 -4
8 -15 -1 -11 -9 -18 -10 -28 -1 -8 6 -17 8 -20 4 -4 -3 -17 -1 -30 5 -12 6
-31 13 -42 15 -44 10 62 6 120 -4z m-265 -13 c0 -2 -13 -9 -30 -15 -35 -12
-41 -5 -7 9 25 10 37 12 37 6z m-90 -67 c-7 -11 -14 -18 -17 -15 -3 3 0 12 7
21 18 21 23 19 10 -6z m-30 -73 c0 -11 -19 -15 -25 -6 -3 5 1 10 9 10 9 0 16
-2 16 -4z m-10 -56 c0 -5 -2 -10 -4 -10 -3 0 -8 5 -11 10 -3 6 -1 10 4 10 6 0
11 -4 11 -10z m70 -84 c0 -11 -19 -15 -25 -6 -3 5 1 10 9 10 9 0 16 -2 16 -4z
m90 -46 c0 -5 -4 -10 -10 -10 -5 0 -10 5 -10 10 0 6 5 10 10 10 6 0 10 -4 10
-10z m47 -16 c-3 -3 -12 -4 -19 -1 -8 3 -5 6 6 6 11 1 17 -2 13 -5z m209 -96
c2 -14 -1 -16 -16 -8 -30 16 -35 32 -10 28 13 -1 24 -11 26 -20z m57 -25 c-7
-2 -19 -2 -25 0 -7 3 -2 5 12 5 14 0 19 -2 13 -5z m57 -49 c0 -7 -9 -18 -20
-24 -16 -9 -18 -8 -14 5 4 10 0 15 -10 15 -22 0 -20 18 2 22 24 6 42 -2 42
-18z m-1 -65 c-23 -14 -35 9 -13 25 17 13 19 13 22 -1 2 -9 -2 -19 -9 -24z
m-8 -61 c-4 -12 -13 -23 -20 -24 -6 -1 -7 0 -1 3 5 2 8 9 4 14 -6 11 4 29 16
29 5 0 6 -10 1 -22z m-21 -57 c0 -6 -10 -21 -22 -35 -31 -34 -180 -75 -204
-56 -25 21 -2 31 82 35 43 2 82 4 85 4 4 1 12 15 19 31 11 28 40 42 40 21z
m-460 -40 c0 -5 -7 -11 -15 -15 -15 -5 -20 5 -8 17 9 10 23 9 23 -2z m50 -15
c0 -2 -7 -9 -15 -16 -13 -11 -14 -10 -9 4 5 14 24 23 24 12z m-45 -16 c-3 -5
-14 -10 -23 -9 -14 0 -13 2 3 9 27 11 27 11 20 0z m103 -2 c-5 -15 -48 -24
-48 -10 0 14 12 22 33 22 10 0 17 -5 15 -12z m92 -13 c0 -10 -10 -15 -30 -15
-20 0 -30 5 -30 15 0 10 10 15 30 15 20 0 30 -5 30 -15z"/>
</g>
</svg>
