<?xml version="1.0" standalone="no"?>
<!DOCTYPE svg PUBLIC "-//W3C//DTD SVG 20010904//EN"
 "http://www.w3.org/TR/2001/REC-SVG-20010904/DTD/svg10.dtd">
<svg version="1.0" xmlns="http://www.w3.org/2000/svg"
 width="500.000000pt" height="500.000000pt" viewBox="0 0 500.000000 500.000000"
 preserveAspectRatio="xMidYMid meet">
<metadata>
Created by potrace 1.14, written by Peter Selinger 2001-2017
</metadata>
<g transform="translate(0.000000,500.000000) scale(0.100000,-0.100000)"
fill="#000000" stroke="none">
<path d="M2472 4225 c-34 -25 -28 -52 18 -75 41 -21 52 -43 25 -54 -22 -8 -41
2 -53 27 -10 21 -11 20 -11 -9 -1 -28 2 -30 38 -32 43 -3 74 19 69 47 -2 9
-20 25 -41 36 -21 11 -37 28 -37 38 0 22 28 22 52 0 17 -15 18 -15 18 5 0 12
-6 22 -14 22 -8 0 -20 2 -28 5 -7 3 -23 -2 -36 -10z"/>
<path d="M2251 4211 c-10 -7 -10 -10 -1 -13 9 -3 13 -27 14 -71 1 -52 4 -66
14 -62 8 3 21 5 30 6 11 0 12 2 5 6 -14 5 -18 53 -5 53 5 0 18 -13 30 -29 15
-21 27 -28 41 -24 19 5 18 6 -6 28 -25 21 -26 24 -14 54 11 25 11 34 1 46 -14
16 -86 20 -109 6z m79 -16 c16 -20 5 -45 -20 -45 -16 0 -20 7 -20 30 0 33 19
40 40 15z"/>
<path d="M2753 4190 c-29 -27 -37 -56 -23 -89 11 -27 46 -51 74 -51 7 0 25 9
40 21 20 15 26 29 26 57 0 43 -7 55 -37 71 -32 16 -56 14 -80 -9z m85 -42 c4
-48 -12 -78 -43 -78 -30 0 -48 30 -39 67 10 41 24 54 53 51 22 -3 26 -9 29
-40z"/>
<path d="M2145 4194 c-5 -2 -30 -8 -54 -14 -27 -7 -40 -15 -32 -19 20 -12 43
-114 28 -123 -18 -11 31 -10 76 3 28 7 37 15 33 26 -3 8 -6 20 -6 26 0 7 -6 1
-13 -13 -18 -35 -51 -33 -55 3 -3 22 1 27 17 27 12 0 21 5 21 11 0 6 -9 8 -21
4 -21 -7 -39 7 -39 31 0 18 38 24 51 8 17 -20 28 -17 22 6 -6 23 -13 29 -28
24z"/>
<path d="M2965 4160 c11 -17 -15 -109 -33 -119 -21 -12 -16 -17 28 -25 22 -5
30 -4 22 2 -9 6 -11 18 -7 35 6 23 11 26 33 20 17 -4 23 -2 18 6 -4 6 -14 11
-22 11 -16 0 -18 18 -5 38 13 21 46 10 49 -16 4 -26 22 -20 22 8 0 13 -14 23
-47 34 -55 19 -67 20 -58 6z"/>
<path d="M1935 4134 c-71 -25 -70 -25 -58 -32 6 -4 21 -31 33 -61 17 -44 18
-56 8 -63 -17 -13 36 -1 78 17 26 10 31 18 27 34 -7 26 -23 27 -23 2 0 -11 -9
-23 -21 -26 -24 -8 -24 -8 -34 23 -5 19 -2 25 14 29 12 3 21 9 21 14 0 5 -11
4 -24 -1 -25 -9 -36 2 -36 36 0 17 41 19 58 2 9 -9 12 -9 12 3 0 31 -14 37
-55 23z"/>
<path d="M1773 4073 c-7 -2 -13 -9 -13 -14 0 -6 4 -8 8 -5 9 5 46 -63 38 -71
-2 -2 -27 7 -56 22 -30 15 -59 23 -71 20 -22 -7 -26 -25 -6 -25 17 0 62 -94
53 -109 -10 -16 7 -14 30 4 10 8 13 15 7 15 -12 0 -59 80 -48 80 3 0 32 -13
65 -30 33 -17 62 -26 65 -20 3 5 -8 36 -24 69 -22 42 -27 61 -18 64 8 4 7 5
-3 5 -8 0 -21 -2 -27 -5z"/>
<path d="M3215 4025 c-44 -43 -29 -106 32 -132 38 -15 52 -8 53 27 0 11 -3 11
-12 2 -19 -19 -56 -14 -68 8 -16 29 11 87 44 96 31 8 56 -10 56 -40 1 -21 1
-21 15 -2 15 19 21 46 9 33 -4 -3 -18 3 -32 13 -33 27 -68 25 -97 -5z"/>
<path d="M1525 3925 c-39 -38 -27 -102 22 -124 34 -16 47 -14 77 10 52 41 18
139 -49 139 -14 0 -37 -11 -50 -25z m75 -17 c27 -29 35 -64 20 -83 -18 -21
-43 -18 -67 8 -30 32 -37 62 -18 81 22 22 40 20 65 -6z"/>
<path d="M3381 3914 c-28 -35 -26 -69 4 -99 48 -49 128 -14 128 55 0 68 -89
98 -132 44z m90 6 c40 -22 4 -110 -46 -110 -49 0 -48 70 2 108 20 15 20 15 44
2z"/>
<path d="M1392 3824 c-21 -14 -33 -42 -13 -30 11 7 93 -89 84 -98 -3 -3 -2 -6
4 -6 5 0 18 9 28 20 16 17 16 20 2 20 -19 0 -83 79 -79 97 4 17 1 16 -26 -3z"/>
<path d="M3600 3824 c0 -27 -74 -99 -92 -88 -7 4 -4 -2 6 -14 18 -21 43 -31
32 -13 -6 9 33 65 40 58 2 -2 -3 -23 -11 -47 -8 -24 -13 -45 -10 -48 2 -3 28
5 57 17 l52 22 -29 -31 c-16 -16 -35 -30 -43 -30 -12 0 -12 -4 3 -20 21 -23
35 -26 35 -7 0 17 72 87 90 87 11 0 11 4 -3 17 -16 16 -20 16 -69 -5 -28 -12
-53 -20 -55 -19 -1 2 4 27 13 57 14 48 14 54 0 68 -15 15 -16 14 -16 -4z"/>
<path d="M1260 3695 c-22 -22 -29 -35 -19 -35 19 0 102 -84 93 -93 -4 -4 -3
-7 2 -7 5 0 17 12 27 25 17 24 17 25 -2 25 -30 0 -35 18 -15 55 15 28 16 36 5
49 -21 26 -55 19 -91 -19z m69 -4 c8 -14 7 -22 -4 -31 -21 -18 -61 16 -44 37
16 19 37 16 48 -6z"/>
<path d="M2173 3649 c-7 -18 -24 -34 -43 -43 l-32 -13 31 -6 c24 -5 35 -14 43
-39 l12 -33 13 33 c10 24 21 34 44 39 l31 6 -31 13 c-19 8 -37 26 -44 43 l-13
30 -11 -30z"/>
<path d="M3783 3649 c6 -19 -77 -94 -93 -84 -16 10 -11 -8 10 -35 15 -19 20
-21 20 -9 0 9 7 22 15 29 13 10 19 10 34 -4 11 -10 31 -16 48 -14 45 5 44 47
-2 95 -20 21 -35 31 -32 22z m43 -54 c7 -18 -13 -45 -33 -45 -23 0 -27 30 -7
45 24 19 33 18 40 0z"/>
<path d="M3900 3500 c-1 -8 -20 -29 -43 -45 -48 -35 -55 -56 -33 -90 21 -32
55 -32 107 0 22 14 44 23 49 20 14 -9 12 7 -4 28 -13 17 -14 17 -18 -1 -3 -10
-26 -29 -51 -42 -43 -23 -48 -23 -63 -8 -9 9 -14 23 -10 34 8 24 74 67 92 60
20 -8 17 8 -6 35 -14 17 -20 20 -20 9z"/>
<path d="M1132 3410 c-62 -92 -159 -290 -191 -388 -65 -196 -76 -276 -76 -522
0 -239 3 -263 57 -455 173 -624 718 -1091 1373 -1176 130 -17 405 -6 528 20
302 66 557 197 795 410 40 35 72 68 72 72 0 22 -29 4 -85 -50 -148 -146 -394
-293 -602 -360 -873 -283 -1805 209 -2060 1088 -39 135 -54 235 -60 401 -7
210 19 390 89 594 26 77 125 272 177 351 42 62 47 75 32 75 -5 0 -27 -27 -49
-60z"/>
<path d="M2560 3390 c-135 -27 -312 -60 -395 -75 -82 -15 -184 -33 -225 -40
-41 -8 -106 -19 -145 -25 -141 -22 -267 -49 -281 -61 -23 -19 -17 -67 37 -275
28 -110 64 -253 80 -319 55 -231 90 -331 119 -340 9 -3 35 1 58 9 23 8 67 19
99 25 32 6 126 27 210 48 84 20 155 35 158 31 8 -8 -6 -85 -19 -102 -6 -9 -51
-24 -100 -35 -48 -11 -93 -24 -98 -29 -16 -16 0 -45 40 -74 21 -15 61 -47 88
-71 l49 -44 50 14 c28 8 86 22 130 33 218 51 267 73 252 112 -3 9 -42 41 -86
73 -76 53 -84 56 -122 50 l-40 -7 3 63 3 63 60 18 c33 10 103 30 155 44 52 14
163 43 245 65 83 22 167 45 189 50 l38 10 -7 47 c-3 26 -22 142 -42 257 -19
116 -41 246 -48 290 -7 44 -24 109 -38 145 -14 36 -28 73 -31 83 -9 29 -118
20 -386 -33z m370 -17 c0 -7 9 -39 19 -71 11 -31 27 -100 36 -152 8 -52 18
-108 21 -123 19 -109 57 -356 58 -376 1 -22 -6 -27 -58 -43 -263 -81 -1078
-289 -1210 -310 -22 -3 -17 -18 -91 262 -26 96 -52 200 -57 230 -5 30 -28 124
-50 208 -21 85 -38 155 -36 156 48 26 176 52 353 72 28 3 73 11 100 19 28 8
154 32 280 55 284 49 361 64 448 84 38 9 83 15 100 15 l32 -1 -35 -9 c-19 -4
-62 -13 -95 -19 -33 -6 -107 -22 -165 -35 -260 -59 -482 -102 -670 -130 -168
-25 -314 -55 -321 -67 -6 -10 29 -138 62 -222 10 -27 19 -57 19 -66 0 -22 75
-372 97 -455 23 -85 28 -90 94 -72 30 8 88 23 129 32 41 9 185 49 320 87 235
67 339 94 515 133 111 24 231 70 228 87 -1 7 -7 33 -13 58 -24 108 -70 369
-70 403 0 20 -8 58 -19 84 -10 26 -24 75 -31 108 -7 33 -16 65 -21 71 -5 6 -6
14 -2 17 9 9 33 -12 33 -30z m-50 -25 c0 -13 14 -65 30 -117 17 -51 30 -107
30 -124 0 -28 34 -229 60 -360 17 -82 16 -83 -52 -106 -35 -11 -133 -36 -219
-55 -86 -19 -206 -49 -265 -66 -302 -89 -642 -176 -650 -168 -2 3 -64 253 -94
381 -11 49 -20 97 -20 107 0 11 -18 76 -40 146 -29 90 -37 129 -29 134 6 4 70
17 143 30 234 39 386 68 636 120 135 28 274 56 310 61 36 5 83 16 105 24 53
19 55 19 55 -7z m-1323 -300 c-3 -8 -6 -5 -6 6 -1 11 2 17 5 13 3 -3 4 -12 1
-19z m20 -90 c-3 -8 -6 -5 -6 6 -1 11 2 17 5 13 3 -3 4 -12 1 -19z m20 -70
c-3 -8 -6 -5 -6 6 -1 11 2 17 5 13 3 -3 4 -12 1 -19z m793 -498 c0 -5 -5 -43
-11 -84 -11 -71 -12 -74 -42 -80 -16 -3 -32 -4 -34 -2 -2 2 -1 40 3 84 6 72 9
81 28 85 39 8 56 7 56 -3z m188 -171 c34 -24 62 -47 62 -51 0 -13 -129 -49
-262 -73 l-138 -25 -70 57 -71 58 68 17 c86 22 95 22 91 1 -2 -14 4 -18 27
-17 56 3 117 25 122 44 5 19 63 41 93 36 9 -2 44 -23 78 -47z"/>
<path d="M2649 3203 c-108 -119 -369 -519 -429 -657 -28 -65 -12 -51 67 61 66
94 81 116 133 199 13 21 70 108 127 191 110 164 136 209 131 224 -2 6 -15 -3
-29 -18z"/>
<path d="M2193 3088 c-145 -168 -369 -505 -349 -525 14 -14 47 29 254 332 30
44 86 122 123 173 38 50 69 97 69 102 0 23 -22 5 -97 -82z"/>
<path d="M1968 2993 c-86 -104 -122 -153 -116 -159 5 -4 83 82 149 166 44 56
53 70 41 70 -5 0 -38 -35 -74 -77z"/>
<path d="M2708 2963 c-63 -86 -192 -302 -185 -309 6 -6 53 49 99 116 50 73
148 235 148 244 0 19 -25 -1 -62 -51z"/>
<path d="M2805 2876 c-6 -7 -25 -32 -42 -56 -36 -47 -46 -83 -16 -59 23 20 93
109 93 120 0 14 -24 11 -35 -5z"/>
<path d="M3260 3317 c-10 -22 -24 -34 -45 -38 -30 -6 -28 -9 20 -24 9 -3 22
-19 29 -36 l13 -31 11 31 c8 23 19 33 42 37 38 8 39 20 2 27 -18 4 -33 16 -42
36 l-15 30 -15 -32z"/>
<path d="M3993 3313 c-21 -8 -15 -20 8 -19 12 1 24 -4 26 -10 5 -14 -102 -59
-116 -49 -15 9 -14 -1 4 -35 15 -30 32 -42 22 -17 -3 9 14 23 50 41 59 29 75
27 55 -4 -17 -28 -15 -31 12 -19 l25 12 -27 53 c-25 52 -33 58 -59 47z"/>
<path d="M4099 3134 c-7 -18 -117 -55 -123 -41 -2 7 -5 4 -5 -5 -2 -34 31 -98
49 -98 11 0 22 5 25 10 3 6 -3 10 -15 10 -27 0 -45 42 -21 52 28 12 38 9 49
-14 11 -22 12 -22 9 6 -1 22 3 31 20 37 19 7 24 4 29 -17 4 -17 2 -29 -7 -35
-18 -11 -6 -21 15 -13 9 3 16 14 15 23 -1 25 -35 97 -40 85z"/>
<path d="M4161 2954 c-1 -14 -121 -46 -121 -33 0 5 -5 9 -10 9 -6 0 -8 -11 -4
-27 8 -35 13 -40 22 -27 8 13 52 25 52 15 0 -4 -13 -20 -29 -35 -18 -18 -27
-34 -24 -46 5 -17 8 -16 30 10 20 24 28 28 43 20 53 -28 79 9 56 80 -8 25 -14
40 -15 34z m7 -66 c-4 -28 -42 -37 -52 -12 -7 19 9 34 37 34 13 0 18 -6 15
-22z"/>
<path d="M1418 2644 c-2 -21 -12 -34 -36 -45 l-33 -17 30 -10 c22 -8 33 -20
39 -44 10 -33 11 -32 27 17 3 9 18 21 35 27 l31 10 -33 17 c-18 9 -35 25 -36
36 -6 34 -20 39 -24 9z"/>
<path d="M4074 2604 c6 -75 53 -88 86 -24 11 22 27 40 35 40 21 0 19 -40 -2
-56 -17 -12 -16 -13 7 -14 22 0 26 5 28 30 6 84 -68 94 -92 13 -5 -14 -15 -23
-27 -23 -27 0 -27 50 1 57 30 8 24 23 -10 23 -29 0 -29 -1 -26 -46z"/>
<path d="M4092 2447 c-15 -16 -22 -36 -22 -65 0 -39 2 -42 27 -42 l26 0 -21
23 c-12 13 -22 28 -22 34 0 22 32 43 65 43 60 0 87 -54 43 -84 -12 -9 -17 -16
-11 -16 6 0 18 -2 26 -5 11 -5 14 6 16 49 1 46 -2 57 -21 70 -33 23 -81 20
-106 -7z"/>
<path d="M3612 2381 c-8 -22 -22 -36 -41 -44 l-30 -11 30 -13 c19 -8 34 -24
41 -44 l11 -32 11 34 c8 25 19 37 44 45 l34 11 -34 9 c-25 7 -36 18 -44 43
l-11 34 -11 -32z"/>
<path d="M3035 2235 c-71 -30 -141 -63 -154 -73 -52 -39 -52 -40 67 -184 60
-73 122 -140 136 -147 38 -21 83 -9 229 62 153 75 187 99 187 132 0 37 -96
142 -170 185 -36 22 -78 48 -95 59 -16 12 -39 21 -50 20 -11 0 -78 -24 -150
-54z m206 -8 c24 -18 60 -43 80 -55 43 -26 139 -126 139 -144 -1 -14 -304
-168 -332 -168 -19 0 -53 33 -145 137 -76 85 -106 123 -102 127 41 30 273 134
305 135 6 1 31 -14 55 -32z"/>
<path d="M3100 2199 c-35 -14 -70 -49 -70 -70 0 -28 47 -57 135 -84 86 -27
105 -25 143 8 57 52 4 128 -101 146 -74 13 -74 13 -107 0z m155 -43 c39 -17
56 -56 34 -82 -10 -12 -24 -15 -59 -11 -64 8 -164 49 -168 70 -3 15 5 16 73
12 64 -3 76 -2 71 11 -7 18 6 18 49 0z"/>
<path d="M4057 2258 c-4 -12 -7 -25 -7 -28 0 -3 30 -6 67 -7 37 -1 69 -7 73
-13 5 -7 10 -3 13 12 10 34 8 43 -3 32 -13 -13 -121 3 -131 18 -3 5 -9 -1 -12
-14z"/>
<path d="M4021 2108 c-12 -54 -6 -68 29 -68 12 1 11 4 -3 15 -26 19 -18 50 13
50 21 0 25 -4 23 -27 -1 -16 2 -28 8 -28 5 0 9 9 9 19 0 25 10 31 37 20 27
-10 20 -49 -8 -49 -25 0 -24 -16 2 -23 15 -4 22 1 29 18 13 34 23 102 13 88
-7 -10 -21 -9 -66 4 -31 8 -57 20 -57 24 0 5 -4 9 -8 9 -5 0 -14 -23 -21 -52z"/>
<path d="M2710 2039 c-13 -6 -93 -17 -177 -25 -84 -8 -206 -23 -270 -34 -65
-12 -167 -27 -228 -36 -60 -8 -130 -19 -155 -24 -25 -5 -63 -11 -85 -14 -118
-15 -145 -30 -143 -81 1 -17 -2 -36 -5 -41 -3 -6 -2 -16 3 -24 7 -11 12 -11
23 -2 12 10 19 5 40 -26 13 -21 39 -66 56 -99 17 -34 34 -64 38 -66 8 -5 234
24 343 43 25 4 140 24 255 45 116 20 264 45 330 55 158 24 183 30 195 45 12
15 -12 86 -71 213 l-38 82 -43 -1 c-24 0 -54 -5 -68 -10z m88 -36 c6 -19 -33
-16 -49 3 -11 14 -9 15 16 12 16 -1 30 -9 33 -15z m-78 -13 c0 -5 -4 -10 -10
-10 -5 0 -10 5 -10 10 0 6 5 10 10 10 6 0 10 -4 10 -10z m-100 -10 c0 -5 -4
-10 -10 -10 -5 0 -10 5 -10 10 0 6 5 10 10 10 6 0 10 -4 10 -10z m-150 -31 c0
-24 -23 -21 -28 4 -2 10 3 17 12 17 10 0 16 -9 16 -21z m55 11 c3 -5 2 -10 -4
-10 -5 0 -13 5 -16 10 -3 6 -2 10 4 10 5 0 13 -4 16 -10z m-117 -18 c6 -18
-15 -14 -22 4 -4 10 -1 14 6 12 6 -2 14 -10 16 -16z m332 8 c0 -5 -4 -10 -10
-10 -5 0 -10 5 -10 10 0 6 5 10 10 10 6 0 10 -4 10 -10z m73 3 c-7 -2 -19 -2
-25 0 -7 3 -2 5 12 5 14 0 19 -2 13 -5z m-505 -42 c-16 -5 -29 22 -15 31 7 4
15 0 18 -10 4 -9 2 -19 -3 -21z m52 23 c0 -8 -4 -12 -10 -9 -5 3 -10 10 -10
16 0 5 5 9 10 9 6 0 10 -7 10 -16z m330 6 c0 -5 -2 -10 -4 -10 -3 0 -8 5 -11
10 -3 6 -1 10 4 10 6 0 11 -4 11 -10z m-50 -10 c0 -5 -2 -10 -4 -10 -3 0 -8 5
-11 10 -3 6 -1 10 4 10 6 0 11 -4 11 -10z m-436 -16 c9 -22 -3 -32 -14 -14
-12 19 -12 30 -1 30 5 0 12 -7 15 -16z m56 1 c0 -8 -4 -15 -9 -15 -5 0 -11 7
-15 15 -3 9 0 15 9 15 8 0 15 -7 15 -15z m330 5 c0 -5 -2 -10 -4 -10 -3 0 -8
5 -11 10 -3 6 -1 10 4 10 6 0 11 -4 11 -10z m-474 -37 c-3 -3 -13 0 -22 8 -15
12 -14 14 3 20 17 6 32 -15 19 -28z m38 21 c3 -8 2 -12 -4 -9 -6 3 -10 10 -10
16 0 14 7 11 14 -7z m396 6 c0 -5 -4 -10 -9 -10 -6 0 -13 5 -16 10 -3 6 1 10
9 10 9 0 16 -4 16 -10z m287 4 c-3 -3 -12 -4 -19 -1 -8 3 -5 6 6 6 11 1 17 -2
13 -5z m-403 -19 c4 -11 -1 -15 -19 -15 -29 0 -34 16 -7 23 9 3 18 5 18 6 1 0
4 -6 8 -14z m61 5 c3 -5 -1 -10 -9 -10 -8 0 -18 5 -21 10 -3 6 1 10 9 10 8 0
18 -4 21 -10z m-481 -16 c9 -24 7 -28 -9 -14 -17 14 -20 30 -6 30 5 0 12 -7
15 -16z m54 -2 c6 -18 -15 -14 -22 4 -4 10 -1 14 6 12 6 -2 14 -10 16 -16z
m-94 -8 c4 -10 1 -14 -6 -12 -15 5 -23 28 -10 28 5 0 13 -7 16 -16z m386 6 c0
-5 -6 -10 -14 -10 -8 0 -18 5 -21 10 -3 6 3 10 14 10 12 0 21 -4 21 -10z m255
0 c3 -5 -1 -10 -10 -10 -9 0 -13 5 -10 10 3 6 8 10 10 10 2 0 7 -4 10 -10z
m-687 -18 c6 -18 -15 -14 -22 4 -4 10 -1 14 6 12 6 -2 14 -10 16 -16z m372 8
c0 -5 -4 -10 -10 -10 -5 0 -10 5 -10 10 0 6 5 10 10 10 6 0 10 -4 10 -10z
m550 0 c-19 -13 -30 -13 -30 0 0 6 10 10 23 10 18 0 19 -2 7 -10z m-1020 -32
c0 -5 -6 -8 -14 -8 -18 0 -29 27 -13 33 12 4 27 -10 27 -25z m54 16 c4 -11 1
-14 -11 -12 -9 2 -18 9 -21 16 -6 18 25 15 32 -4z m-110 -10 c9 -23 8 -24 -23
-24 -35 0 -50 27 -18 33 12 2 25 5 28 6 4 0 10 -6 13 -15z m681 6 c3 -5 2 -10
-4 -10 -5 0 -13 5 -16 10 -3 6 -2 10 4 10 5 0 13 -4 16 -10z m62 4 c-3 -3 -12
-4 -19 -1 -8 3 -5 6 6 6 11 1 17 -2 13 -5z m173 -4 c0 -5 -4 -10 -10 -10 -5 0
-10 5 -10 10 0 6 5 10 10 10 6 0 10 -4 10 -10z m-330 -10 c0 -5 -9 -10 -21
-10 -11 0 -17 5 -14 10 3 6 13 10 21 10 8 0 14 -4 14 -10z m50 0 c0 -5 -4 -10
-9 -10 -6 0 -13 5 -16 10 -3 6 1 10 9 10 9 0 16 -4 16 -10z m475 -26 c18 -44
18 -41 0 -48 -11 -4 -21 5 -32 30 -15 31 -15 36 -3 44 8 6 16 10 17 10 2 0 10
-16 18 -36z m-870 16 c3 -5 -1 -10 -10 -10 -9 0 -13 5 -10 10 3 6 8 10 10 10
2 0 7 -4 10 -10z m275 0 c0 -5 -7 -10 -15 -10 -8 0 -15 5 -15 10 0 6 7 10 15
10 8 0 15 -4 15 -10z m357 -9 c10 -16 9 -20 -3 -25 -8 -3 -17 1 -20 9 -9 23
-65 19 -71 -5 -5 -20 -32 -28 -34 -10 -5 31 -1 35 36 41 69 11 80 9 92 -10z
m-447 -1 c0 -5 -7 -10 -16 -10 -8 0 -12 5 -9 10 3 6 10 10 16 10 5 0 9 -4 9
-10z m40 6 c0 -3 -4 -8 -10 -11 -5 -3 -10 -1 -10 4 0 6 5 11 10 11 6 0 10 -2
10 -4z m520 -6 c0 -5 -5 -10 -11 -10 -5 0 -7 5 -4 10 3 6 8 10 11 10 2 0 4 -4
4 -10z m-615 -10 c3 -5 -1 -10 -10 -10 -9 0 -13 5 -10 10 3 6 8 10 10 10 2 0
7 -4 10 -10z m565 0 c0 -5 -4 -10 -10 -10 -5 0 -10 5 -10 10 0 6 5 10 10 10 6
0 10 -4 10 -10z m-885 -10 c3 -5 1 -10 -4 -10 -6 0 -11 5 -11 10 0 6 2 10 4
10 3 0 8 -4 11 -10z m58 3 c-7 -2 -19 -2 -25 0 -7 3 -2 5 12 5 14 0 19 -2 13
-5z m217 -3 c0 -5 -4 -10 -9 -10 -6 0 -13 5 -16 10 -3 6 1 10 9 10 9 0 16 -4
16 -10z m240 0 c0 -5 -10 -10 -22 -10 -19 0 -20 2 -8 10 19 13 30 13 30 0z
m53 3 c-7 -2 -19 -2 -25 0 -7 3 -2 5 12 5 14 0 19 -2 13 -5z m-613 -12 c0 -11
-26 -22 -34 -14 -12 12 -5 23 14 23 11 0 20 -4 20 -9z m270 -1 c0 -5 -2 -10
-4 -10 -3 0 -8 5 -11 10 -3 6 -1 10 4 10 6 0 11 -4 11 -10z m230 0 c0 -5 -4
-10 -10 -10 -5 0 -10 5 -10 10 0 6 5 10 10 10 6 0 10 -4 10 -10z m-270 -4 c0
-3 -4 -8 -10 -11 -5 -3 -10 -1 -10 4 0 6 5 11 10 11 6 0 10 -2 10 -4z m230 -6
c0 -5 -4 -10 -10 -10 -5 0 -10 5 -10 10 0 6 5 10 10 10 6 0 10 -4 10 -10z
m247 -6 c-9 -10 -77 -22 -77 -15 0 4 17 12 38 17 37 10 51 9 39 -2z m337 0 c4
-10 1 -14 -6 -12 -15 5 -23 28 -10 28 5 0 13 -7 16 -16z m-904 -4 c0 -5 -4
-10 -10 -10 -5 0 -10 5 -10 10 0 6 5 10 10 10 6 0 10 -4 10 -10z m50 6 c0 -11
-19 -15 -25 -6 -3 5 1 10 9 10 9 0 16 -2 16 -4z m180 -6 c0 -5 -7 -10 -16 -10
-8 0 -12 5 -9 10 3 6 10 10 16 10 5 0 9 -4 9 -10z m47 4 c-3 -3 -12 -4 -19 -1
-8 3 -5 6 6 6 11 1 17 -2 13 -5z m583 -9 c0 -10 -11 -15 -35 -15 -24 0 -35 5
-35 15 0 10 11 15 35 15 24 0 35 -5 35 -15z m-905 -5 c3 -5 -1 -10 -9 -10 -9
0 -16 5 -16 10 0 6 4 10 9 10 6 0 13 -4 16 -10z m225 0 c0 -5 -4 -10 -10 -10
-5 0 -10 5 -10 10 0 6 5 10 10 10 6 0 10 -4 10 -10z m584 -5 c3 -9 0 -15 -9
-15 -16 0 -27 14 -18 24 10 10 21 7 27 -9z m-854 -4 c0 -9 -52 -22 -60 -15 -7
7 23 24 43 24 9 0 17 -4 17 -9z m220 -1 c0 -5 -2 -10 -4 -10 -3 0 -8 5 -11 10
-3 6 -1 10 4 10 6 0 11 -4 11 -10z m280 6 c0 -2 -7 -6 -15 -10 -8 -3 -15 -1
-15 4 0 6 7 10 15 10 8 0 15 -2 15 -4z m53 -3 c-7 -2 -19 -2 -25 0 -7 3 -2 5
12 5 14 0 19 -2 13 -5z m245 -18 c-3 -3 -9 2 -12 12 -6 14 -5 15 5 6 7 -7 10
-15 7 -18z m-618 5 c0 -5 -4 -10 -10 -10 -5 0 -10 5 -10 10 0 6 5 10 10 10 6
0 10 -4 10 -10z m267 4 c-3 -3 -12 -4 -19 -1 -8 3 -5 6 6 6 11 1 17 -2 13 -5z
m307 -9 c3 -10 -1 -15 -13 -15 -10 0 -21 7 -25 15 -3 10 1 15 13 15 10 0 21
-7 25 -15z m-619 -5 c-3 -5 -10 -10 -16 -10 -5 0 -9 5 -9 10 0 6 7 10 16 10 8
0 12 -4 9 -10z m558 -4 c9 -23 -42 -27 -54 -5 -8 17 -6 19 20 19 16 0 31 -6
34 -14z m-606 -2 c-3 -3 -12 -4 -19 -1 -8 3 -5 6 6 6 11 1 17 -2 13 -5z m226
-1 c-7 -2 -19 -2 -25 0 -7 3 -2 5 12 5 14 0 19 -2 13 -5z m305 -10 c6 -19 -25
-16 -32 3 -4 11 -1 14 11 12 9 -2 18 -9 21 -15z m-598 -3 c-14 -4 -34 -8 -45
-8 l-20 -1 20 9 c11 5 31 8 45 8 l25 0 -25 -8z m237 4 c-3 -3 -12 -4 -19 -1
-8 3 -5 6 6 6 11 1 17 -2 13 -5z m204 -36 c-14 -4 -70 -16 -124 -26 -95 -18
-98 -18 -108 0 -13 23 -12 24 131 46 103 16 116 16 121 2 5 -10 -1 -17 -20
-22z m99 28 c0 -7 -9 -16 -20 -19 -11 -3 -20 -4 -20 -2 0 2 -3 10 -6 19 -5 12
0 16 20 16 15 0 26 -6 26 -14z m-343 -2 c-3 -3 -12 -4 -19 -1 -8 3 -5 6 6 6
11 1 17 -2 13 -5z m-82 -14 c3 -5 -1 -10 -10 -10 -9 0 -13 5 -10 10 3 6 8 10
10 10 2 0 7 -4 10 -10z m-50 -10 c3 -5 -1 -10 -9 -10 -9 0 -16 5 -16 10 0 6 4
10 9 10 6 0 13 -4 16 -10z m-45 -9 c0 -15 -49 -19 -54 -5 -4 10 3 14 24 14 17
0 30 -4 30 -9z m157 -43 c-13 -8 -47 -11 -47 -4 0 2 -3 11 -6 19 -8 21 37 28
53 8 10 -12 10 -16 0 -23z m-81 11 c3 -6 2 -15 -4 -21 -7 -7 -14 -3 -21 11
-10 17 -9 21 3 21 8 0 18 -5 22 -11z m-53 -13 c4 -9 -4 -16 -21 -19 -32 -6
-37 -3 -29 18 8 19 43 20 50 1z"/>
<path d="M3985 1985 c-4 -11 -10 -24 -13 -29 -3 -5 2 -7 11 -3 9 3 34 -1 57
-10 l41 -16 -68 -22 c-37 -11 -67 -25 -67 -30 1 -6 29 -21 63 -34 33 -13 58
-28 55 -32 -3 -5 0 -9 5 -9 6 0 11 4 11 9 0 5 3 16 6 24 4 11 0 14 -13 11 -10
-3 -34 1 -53 10 l-35 14 60 17 c56 16 85 36 85 59 0 6 -4 6 -11 -1 -14 -14
-117 26 -122 47 -3 11 -6 10 -12 -5z"/>
<path d="M3897 1769 c-11 -6 -26 -27 -34 -46 -12 -30 -12 -37 -1 -44 22 -14
25 -10 24 29 -1 35 1 37 33 40 55 6 102 -53 69 -86 -7 -7 -20 -12 -30 -12 -22
0 -24 -16 -2 -24 29 -11 68 52 59 94 -11 49 -73 75 -118 49z"/>
<path d="M3789 1609 c-39 -52 -42 -59 -29 -74 18 -21 33 -19 21 4 -7 13 -6 23
3 36 10 14 16 15 34 6 24 -13 28 -26 12 -36 -5 -3 -10 -11 -10 -17 0 -6 9 -3
20 7 18 17 22 17 36 4 20 -21 8 -47 -24 -51 -27 -3 -27 -3 -5 -15 19 -12 24
-9 52 29 31 42 40 65 21 53 -13 -8 -98 53 -102 73 -2 11 -11 5 -29 -19z"/>
<path d="M2042 1461 c-8 -22 -22 -36 -41 -44 l-30 -11 30 -13 c19 -8 34 -24
41 -44 l11 -32 11 34 c8 25 19 36 44 43 l34 9 -34 11 c-25 8 -36 20 -44 45
l-11 34 -11 -32z"/>
<path d="M3348 1464 c-2 -21 -12 -33 -34 -44 l-30 -14 30 -16 c21 -10 33 -25
37 -45 6 -30 9 -28 24 21 3 9 18 21 34 27 l29 11 -32 15 c-17 9 -33 25 -34 36
-6 34 -20 39 -24 9z"/>
</g>
</svg>
