<?xml version="1.0" standalone="no"?>
<!DOCTYPE svg PUBLIC "-//W3C//DTD SVG 20010904//EN"
 "http://www.w3.org/TR/2001/REC-SVG-20010904/DTD/svg10.dtd">
<svg version="1.0" xmlns="http://www.w3.org/2000/svg"
 width="500.000000pt" height="500.000000pt" viewBox="0 0 500.000000 500.000000"
 preserveAspectRatio="xMidYMid meet">
<metadata>
Created by potrace 1.14, written by Peter Selinger 2001-2017
</metadata>
<g transform="translate(0.000000,500.000000) scale(0.100000,-0.100000)"
fill="#000000" stroke="none">
<path d="M1460 3591 c-43 -23 -86 -65 -108 -106 -15 -26 -17 -79 -20 -413 l-3
-383 24 -53 c26 -56 68 -95 130 -121 54 -22 810 -22 864 0 61 26 104 65 129
119 24 51 24 52 24 416 0 227 -4 379 -11 403 -13 47 -70 112 -120 138 -36 18
-63 19 -456 19 -388 -1 -421 -2 -453 -19z m568 -186 c106 -32 162 -110 162
-225 0 -78 -13 -119 -55 -168 -50 -59 -95 -75 -230 -81 l-120 -6 -3 -112 -3
-113 -69 0 -70 0 0 360 0 360 168 0 c123 0 182 -4 220 -15z"/>
<path d="M1782 3173 l3 -128 70 -3 c123 -5 180 30 192 115 7 51 -19 108 -58
128 -18 10 -59 15 -119 15 l-91 0 3 -127z"/>
<path d="M3304 3409 c-47 -24 -58 -102 -20 -145 20 -24 31 -28 76 -28 45 0 56
4 76 28 30 34 32 94 6 126 -21 26 -103 37 -138 19z"/>
<path d="M3210 3161 c0 -5 12 -11 28 -13 l27 -3 3 -212 2 -213 -24 0 c-14 0
-28 -4 -31 -10 -4 -6 45 -10 139 -10 91 0 146 4 146 10 0 6 -11 10 -25 10
l-25 0 0 225 0 225 -120 0 c-68 0 -120 -4 -120 -9z"/>
<path d="M2926 2245 c-57 -20 -87 -45 -121 -100 l-30 -48 -3 -359 c-4 -408 0
-444 55 -507 70 -83 58 -81 528 -81 402 0 417 1 457 21 50 26 85 62 109 114
17 37 19 72 19 409 0 248 -4 381 -11 407 -17 55 -65 108 -123 135 -51 24 -51
24 -446 23 -313 0 -403 -3 -434 -14z m603 -180 c62 -34 97 -76 115 -137 19
-63 14 -68 -63 -68 l-68 0 -16 40 c-21 55 -66 80 -142 80 -97 0 -142 -39 -133
-116 5 -42 52 -68 177 -98 206 -48 271 -102 271 -225 0 -99 -65 -179 -173
-215 -70 -23 -222 -21 -287 3 -97 37 -156 104 -162 183 l-3 33 67 3 66 3 24
-42 c31 -55 79 -79 160 -79 100 0 152 42 146 118 -4 50 -41 73 -169 102 -124
27 -194 57 -231 96 -97 104 -42 274 108 334 40 17 68 20 154 17 95 -2 110 -5
159 -32z"/>
<path d="M1855 2100 c-122 -18 -226 -107 -266 -227 -31 -95 -31 -242 1 -339
19 -57 34 -80 84 -130 78 -78 132 -98 264 -97 82 0 99 4 155 31 80 40 135 96
157 163 10 30 16 57 14 61 -3 5 -36 8 -74 8 l-70 0 -25 -41 c-32 -50 -90 -78
-163 -79 -68 0 -111 19 -150 66 -40 48 -56 119 -50 221 5 94 27 143 82 187 30
25 48 31 100 34 91 6 152 -28 187 -103 14 -29 17 -30 87 -33 l72 -3 0 33 c-1
110 -126 225 -269 249 -62 10 -64 10 -136 -1z"/>
</g>
</svg>
