<?xml version="1.0" standalone="no"?>
<!DOCTYPE svg PUBLIC "-//W3C//DTD SVG 20010904//EN"
 "http://www.w3.org/TR/2001/REC-SVG-20010904/DTD/svg10.dtd">
<svg version="1.0" xmlns="http://www.w3.org/2000/svg"
 width="500.000000pt" height="500.000000pt" viewBox="0 0 500.000000 500.000000"
 preserveAspectRatio="xMidYMid meet">
<metadata>
Created by potrace 1.14, written by Peter Selinger 2001-2017
</metadata>
<g transform="translate(0.000000,500.000000) scale(0.100000,-0.100000)"
fill="#000000" stroke="none">
<path d="M1460 3592 c-39 -19 -82 -61 -108 -107 -15 -27 -17 -73 -20 -402 -2
-237 1 -387 8 -411 16 -63 65 -120 123 -148 l52 -24 397 0 c264 1 409 5 430
12 49 17 106 65 131 112 22 40 22 48 22 436 0 433 2 417 -62 485 -61 65 -60
65 -521 65 -373 0 -421 -2 -452 -18z"/>
<path d="M2915 3598 c-16 -6 -47 -27 -68 -47 -71 -67 -70 -61 -71 -497 l-1
-391 30 -49 c19 -30 49 -60 79 -79 l49 -30 401 -3 c284 -2 413 0 443 9 58 16
116 68 142 129 21 50 22 59 19 433 l-3 382 -28 48 c-19 33 -44 56 -80 77 l-52
30 -415 -1 c-260 0 -426 -4 -445 -11z"/>
<path d="M2503 2503 c-4 -9 1 -29 10 -45 9 -17 17 -36 17 -44 0 -9 3 -13 8
-11 4 3 8 -6 8 -19 3 -35 12 -56 24 -49 7 4 7 12 0 24 -5 10 -6 22 -2 26 4 3
8 11 8 16 1 5 2 12 3 15 0 4 8 0 18 -7 9 -8 18 -13 20 -11 11 8 20 -2 32 -34
7 -19 15 -34 17 -31 8 8 -25 75 -40 80 -24 9 -8 36 28 45 l31 8 -27 6 c-15 3
-25 1 -22 -3 3 -5 -2 -9 -10 -9 -9 0 -16 -4 -16 -10 0 -5 -6 -7 -14 -4 -8 3
-24 1 -35 -5 -18 -10 -21 -8 -27 14 -3 14 -11 22 -17 18 -6 -4 -8 4 -5 21 6
29 1 35 -9 9z"/>
<path d="M2723 2503 c9 -11 14 -23 10 -26 -3 -4 2 -7 12 -7 16 0 16 2 3 22 -8
12 -21 24 -29 26 -10 4 -9 -1 4 -15z"/>
<path d="M2608 2493 c6 -2 18 -2 25 0 6 3 1 5 -13 5 -14 0 -19 -2 -12 -5z"/>
<path d="M2595 2470 c-3 -6 1 -7 9 -4 18 7 21 14 7 14 -6 0 -13 -4 -16 -10z"/>
<path d="M2593 2370 c3 -13 2 -29 -3 -35 -10 -12 8 -85 20 -85 4 0 5 -12 2
-27 -2 -16 -1 -25 3 -21 4 4 8 20 10 36 1 15 8 39 15 51 10 19 10 25 -1 32 -8
5 -17 9 -21 9 -5 0 -8 11 -8 24 0 14 -5 28 -12 32 -8 5 -9 0 -5 -16z m26 -90
c0 -10 -3 -8 -9 5 -12 27 -12 43 0 25 5 -8 9 -22 9 -30z"/>
<path d="M2670 2290 c0 -16 4 -30 8 -30 5 0 7 14 4 30 -2 17 -6 30 -8 30 -2 0
-4 -13 -4 -30z"/>
<path d="M1470 2239 c-56 -25 -86 -53 -113 -104 -21 -39 -22 -50 -22 -435 0
-349 2 -399 17 -425 23 -42 66 -84 112 -107 37 -19 60 -20 435 -20 218 -1 412
3 431 7 69 15 139 83 160 156 6 20 10 187 10 399 -1 344 -2 368 -21 410 -25
56 -52 86 -104 113 -39 21 -52 22 -450 25 -396 2 -412 1 -455 -19z"/>
<path d="M2926 2245 c-57 -20 -87 -45 -121 -100 l-30 -48 -1 -376 c0 -207 4
-393 9 -413 12 -48 68 -113 120 -139 39 -20 55 -21 452 -21 404 0 413 1 455
22 52 27 87 63 111 115 17 37 19 72 19 418 0 359 -1 379 -20 420 -26 55 -73
99 -128 121 -37 14 -94 16 -435 16 -310 -1 -400 -4 -431 -15z"/>
<path d="M2680 2245 c0 -5 5 -17 10 -25 5 -8 10 -10 10 -5 0 6 -5 17 -10 25
-5 8 -10 11 -10 5z"/>
</g>
</svg>
